<svg width="15" height="17" viewBox="0 0 15 17" fill="none" xmlns="http://www.w3.org/2000/svg">
<path fill-rule="evenodd" clip-rule="evenodd" d="M3.42956 4.00115C3.42956 6.20994 5.22194 8.00231 7.43072 8.00231C9.6395 8.00231 11.4319 6.20994 11.4319 4.00115C11.4319 1.79237 9.6395 0 7.43072 0C5.22194 0 3.42956 1.79237 3.42956 4.00115ZM0.457938 10.4492C0.301338 10.7138 0.144738 10.9987 0.0272884 11.2836C-0.0118618 11.4057 -0.0118618 11.5278 0.0468636 11.6498C0.203464 11.9347 0.379638 12.1993 0.555813 12.4435C0.810287 12.8098 1.10391 13.1557 1.41711 13.4609C1.69116 13.7255 1.98479 13.99 2.29799 14.2342C3.78568 15.3941 5.56701 16.0046 7.42663 16.0046C9.28626 16.0046 11.0676 15.3941 12.5553 14.2342C12.8685 13.99 13.1621 13.7458 13.4362 13.4609C13.7494 13.1557 14.043 12.8098 14.2975 12.4435C14.4736 12.1993 14.6498 11.9144 14.8064 11.6498C14.8651 11.5481 14.8847 11.4057 14.826 11.2836C14.7085 10.9987 14.5715 10.7138 14.3953 10.4492C13.534 9.10617 12.1834 8.23115 10.6761 8.00731C10.4803 7.98696 10.2846 8.02766 10.128 8.14975C9.34498 8.73989 8.40538 9.06548 7.42663 9.06548C6.44788 9.06548 5.50828 8.73989 4.72528 8.14975C4.56868 8.02766 4.37294 7.98696 4.17719 8.00731C2.66991 8.23115 1.31924 9.12652 0.457938 10.4492Z" fill="white"/>
</svg>
