<svg width="15" height="15" viewBox="0 0 15 15" fill="none" xmlns="http://www.w3.org/2000/svg">
<path fill-rule="evenodd" clip-rule="evenodd" d="M7.43072 14.8614C8.76904 14.8614 10.0075 14.5268 11.1461 13.8577C12.2847 13.1885 13.1885 12.2847 13.8577 11.1461C14.5268 10.0075 14.8614 8.76904 14.8614 7.43072C14.8614 6.09239 14.5268 4.85394 13.8577 3.71536C13.1885 2.57678 12.2847 1.67291 11.1461 1.00375C10.0075 0.334582 8.76904 0 7.43072 0C6.09239 0 4.85394 0.334582 3.71536 1.00375C2.57678 1.67291 1.67291 2.57678 1.00375 3.71536C0.334582 4.85394 0 6.09239 0 7.43072C0 8.76904 0.334582 10.0075 1.00375 11.1461C1.67291 12.2847 2.57678 13.1885 3.71536 13.8577C4.85394 14.5268 6.09239 14.8614 7.43072 14.8614ZM8.26967 9.10862H6.59176C6.49189 9.10862 6.40699 9.07366 6.33708 9.00375C6.26717 8.93384 6.23221 8.84894 6.23221 8.74907V8.62922C6.23221 8.10987 6.41199 7.66043 6.77154 7.2809C6.97129 7.06118 7.32085 6.81149 7.82023 6.53184L7.88015 6.50188C8.21973 6.30213 8.44944 6.15231 8.56929 6.05244C8.74907 5.89264 8.83896 5.70287 8.83896 5.48315C8.83896 5.2035 8.69414 4.96879 8.4045 4.77903C8.11486 4.58927 7.80025 4.49438 7.46068 4.49438C7.10113 4.49438 6.78153 4.59426 6.50188 4.79401C6.3221 4.93384 6.07241 5.19351 5.75281 5.57304C5.69289 5.65294 5.61299 5.69788 5.51311 5.70787C5.41324 5.71786 5.33334 5.69289 5.27341 5.63296L4.22472 4.85394C4.14482 4.79401 4.09488 4.7191 4.07491 4.62922C4.05493 4.53933 4.07491 4.45443 4.13483 4.37453C4.55431 3.73533 5.03371 3.26592 5.57304 2.96629C6.15231 2.62672 6.84145 2.45693 7.64045 2.45693C8.19976 2.45693 8.74907 2.59176 9.28839 2.86142C9.82772 3.13109 10.2672 3.50063 10.6067 3.97004C10.9463 4.43945 11.1161 4.95381 11.1161 5.51311C11.1161 6.15231 10.9263 6.68165 10.5468 7.10113C10.3271 7.34083 9.95756 7.62048 9.43821 7.94008C9.15856 8.09988 8.96879 8.21973 8.86892 8.29963C8.70912 8.41948 8.62922 8.55931 8.62922 8.71911V8.74907C8.62922 8.84894 8.59426 8.93384 8.52435 9.00375C8.45444 9.07366 8.36954 9.10862 8.26967 9.10862ZM6.45693 12.2397C6.7266 12.5094 7.05119 12.6442 7.43072 12.6442C7.81024 12.6442 8.13484 12.5094 8.4045 12.2397C8.67416 11.97 8.80899 11.6455 8.80899 11.2659C8.80899 10.8864 8.67416 10.5618 8.4045 10.2921C8.13484 10.0225 7.81024 9.88765 7.43072 9.88765C7.05119 9.88765 6.7266 10.0225 6.45693 10.2921C6.18727 10.5618 6.05244 10.8864 6.05244 11.2659C6.05244 11.6455 6.18727 11.97 6.45693 12.2397Z" fill="white"/>
</svg>
