<svg width="16" height="16" viewBox="0 0 16 16" fill="none" xmlns="http://www.w3.org/2000/svg">
<path fill-rule="evenodd" clip-rule="evenodd" d="M16 14.375C16 14.1666 15.927 13.9895 15.7812 13.8437L12.6562 10.7187C12.5104 10.5729 12.3333 10.5 12.125 10.5H11.625C12.5416 9.33331 13 7.99998 13 6.49998C13 5.31249 12.7083 4.22395 12.125 3.23437C11.5416 2.24479 10.7552 1.45833 9.7656 0.874998C8.77602 0.291666 7.68748 0 6.49998 0C5.31249 0 4.22395 0.291666 3.23437 0.874998C2.24479 1.45833 1.45833 2.24479 0.874998 3.23437C0.291666 4.22395 0 5.31249 0 6.49998C0 7.68748 0.291666 8.77602 0.874998 9.7656C1.45833 10.7552 2.24479 11.5416 3.23437 12.125C4.22395 12.7083 5.31249 13 6.49998 13C7.99998 13 9.33331 12.5416 10.5 11.625V12.125C10.5 12.3333 10.5729 12.5104 10.7187 12.6562L13.8437 15.7812C13.9895 15.927 14.1666 16 14.375 16C14.5833 16 14.7604 15.927 14.9062 15.7812L15.7812 14.9062C15.927 14.7604 16 14.5833 16 14.375ZM8.5156 9.96872C7.90102 10.3229 7.22915 10.5 6.49998 10.5C5.77082 10.5 5.09894 10.3229 4.48436 9.96872C3.86978 9.61456 3.38541 9.13018 3.03124 8.5156C2.67708 7.90102 2.49999 7.22915 2.49999 6.49998C2.49999 5.77082 2.67708 5.09894 3.03124 4.48436C3.38541 3.86978 3.86978 3.38541 4.48436 3.03124C5.09894 2.67708 5.77082 2.49999 6.49998 2.49999C7.22915 2.49999 7.90102 2.67708 8.5156 3.03124C9.13018 3.38541 9.61456 3.86978 9.96872 4.48436C10.3229 5.09894 10.5 5.77082 10.5 6.49998C10.5 7.22915 10.3229 7.90102 9.96872 8.5156C9.61456 9.13018 9.13018 9.61456 8.5156 9.96872Z" fill="#171717"/>
</svg>
