<svg width="16" height="15" viewBox="0 0 16 15" fill="none" xmlns="http://www.w3.org/2000/svg">
<path d="M13.3356 14.2247C13.7616 14.2247 14.1275 14.0719 14.4331 13.7663C14.7387 13.4607 14.8915 13.0949 14.8915 12.6689C14.8915 12.3725 14.8128 12.0993 14.6553 11.8493C14.4979 11.5992 14.2803 11.4094 14.0024 11.2797V11.2797L14.1691 10.5852C14.2062 10.3814 14.1599 10.1962 14.0302 10.0295C13.9006 9.86282 13.7339 9.77948 13.5301 9.77948V9.77948H6.05661L5.88991 8.89043H14.0302C14.1784 8.89043 14.3127 8.84413 14.4331 8.75152C14.5535 8.65891 14.6322 8.52926 14.6692 8.36256V8.36256L15.975 2.58378C16.0306 2.38004 15.9935 2.19483 15.8639 2.02813C15.7342 1.86143 15.5583 1.77809 15.336 1.77809V1.77809H4.41743L4.16739 0.527869C4.13035 0.379696 4.05163 0.254674 3.93124 0.152804C3.81085 0.0509346 3.67656 0 3.52839 0V0H0.666782C0.481565 0 0.32413 0.0648259 0.194478 0.194478C0.0648259 0.32413 0 0.481565 0 0.666782V0.666782V1.1113C0 1.29652 0.0648259 1.45396 0.194478 1.58361C0.32413 1.71326 0.481565 1.77809 0.666782 1.77809V1.77809H2.61156L4.55635 11.3075C4.31556 11.4557 4.12572 11.6502 3.9868 11.891C3.84789 12.1317 3.77843 12.391 3.77843 12.6689C3.77843 13.0949 3.93124 13.4607 4.23685 13.7663C4.54246 14.0719 4.90826 14.2247 5.33426 14.2247C5.76026 14.2247 6.12606 14.0719 6.43167 13.7663C6.73728 13.4607 6.89009 13.0902 6.89009 12.655C6.89009 12.2197 6.73265 11.8539 6.41778 11.5576V11.5576H12.2521C11.9373 11.8539 11.7798 12.2197 11.7798 12.655C11.7798 13.0902 11.9326 13.4607 12.2382 13.7663C12.5438 14.0719 12.9096 14.2247 13.3356 14.2247Z" fill="white"/>
</svg>
